<?xml version="1.0" encoding="UTF-8"?>
<svg id="Livello_2" data-name="Livello 2" xmlns="http://www.w3.org/2000/svg" viewBox="0 0 1068.99 147.77">
  <defs>
    <style>
      .cls-1 {
        fill: none;
      }

      .cls-2 {
        fill: #fff;
      }
    </style>
  </defs>
  <g id="Livello_2-2" data-name="Livello 2">
    <g>
      <path class="cls-2" d="M229.41,49.25v2.04c-2.21.08-3.86.34-5.05.76-1.15.47-1.95,1.27-2.29,2.46-.38,1.19-.55,3.06-.55,5.6v50.89c0,2.46.21,4.33.64,5.56s1.19,2.04,2.29,2.46,2.8.68,4.97.81v2.04c-1.78-.13-4.03-.21-6.79-.25-2.76,0-5.52-.04-8.32-.04-3.1,0-5.99,0-8.66.04-2.72,0-4.88.13-6.54.25v-2.04c2.33-.13,4.07-.42,5.31-.81,1.19-.42,2-1.23,2.42-2.46.42-1.23.64-3.06.64-5.56v-55.82l.72.08-25.47,66.94h-1.66l-27.08-66.43v50.89c0,3.27.21,5.86.64,7.64.42,1.83,1.32,3.1,2.72,3.91s3.52,1.32,6.41,1.61v2.04c-1.32-.13-2.97-.21-5.05-.25-2.04,0-3.99-.04-5.86-.04-1.66,0-3.31,0-4.97.04-1.7,0-3.06.13-4.16.25v-2.04c2.25-.25,3.95-.81,5.09-1.53,1.15-.76,1.87-2,2.25-3.69s.55-4.07.55-7.09v-47.41c0-2.55-.17-4.41-.55-5.6s-1.15-2.04-2.25-2.46c-1.15-.42-2.84-.72-5.09-.76v-2.04c1.1.08,2.46.13,4.16.21s3.35.08,4.97.08c2.55,0,5.01,0,7.39-.08s4.5-.13,6.37-.21l22.07,55.14-2.25,1.83,21.44-56.67h6.45c2.8,0,5.56,0,8.32-.08,2.72-.08,5.01-.13,6.79-.21h-.02Z"/>
      <path class="cls-2" d="M279.85,48.91l24.96,64.35c1.02,2.46,2.12,4.16,3.35,5.09,1.19.93,2.29,1.4,3.35,1.49v2.04c-1.78-.13-3.91-.21-6.41-.25-2.5,0-5.05-.04-7.64-.04-3.01,0-5.82,0-8.4.04-2.59,0-4.71.13-6.37.25v-2.04c3.48-.13,5.73-.72,6.66-1.78.98-1.06.76-3.35-.64-6.83l-18.08-48.77,1.87-2.25-16.43,42.62c-1.32,3.44-2.08,6.24-2.38,8.4s-.08,3.91.51,5.14,1.66,2.12,3.1,2.63,3.23.81,5.35.89v2.04c-2.21-.13-4.33-.21-6.37-.25-2.04,0-4.12-.04-6.15-.04-1.49,0-2.93,0-4.24.04-1.32,0-2.5.13-3.52.25v-2.04c1.49-.34,3.01-1.23,4.46-2.67s2.89-3.95,4.24-7.51l23.52-60.78c.81.08,1.7.08,2.67.08s1.87,0,2.67-.08h-.08v-.02ZM288.76,92.33v2.04h-30.6l1.02-2.04h29.59,0Z"/>
      <path class="cls-2" d="M359.82,49.25v2.04c-2.21.08-3.86.34-4.97.76-1.15.47-1.91,1.27-2.29,2.46s-.64,3.06-.64,5.6v50.89c0,2.46.17,4.33.55,5.56s1.15,2.04,2.29,2.46,2.84.68,5.01.81v2.04c-1.7-.13-3.91-.21-6.58-.25-2.67,0-5.39-.04-8.11-.04-3.1,0-5.99,0-8.66.04-2.72,0-4.88.13-6.54.25v-2.04c2.25-.13,3.95-.42,5.09-.81,1.15-.42,1.87-1.23,2.25-2.46s.55-3.06.55-5.56v-50.89c0-2.55-.17-4.41-.55-5.6s-1.15-2.04-2.25-2.46c-1.15-.42-2.84-.72-5.09-.76v-2.04c1.66.08,3.82.13,6.54.21s5.6.08,8.66.08c2.76,0,5.43,0,8.11-.08s4.84-.13,6.58-.21h.05Z"/>
      <path class="cls-2" d="M407.15,48.02c3.82,0,6.79.42,8.83,1.23,2.04.81,3.82,1.7,5.35,2.67.81.47,1.49.85,2,1.06.51.25,1.02.34,1.49.34.68,0,1.19-.38,1.49-1.15s.55-1.87.76-3.4h2.38c-.08,1.32-.17,2.8-.25,4.5s-.17,3.99-.21,6.83c0,2.84-.04,6.58-.04,11.25h-2.38c-.21-3.48-.98-6.83-2.29-10.06s-3.23-5.86-5.65-7.94c-2.42-2.08-5.52-3.14-9.3-3.14-3.35,0-6.15.98-8.36,2.97-2.21,2-3.35,4.67-3.35,8.02,0,2.89.72,5.31,2.16,7.22,1.44,1.95,3.48,3.82,6.11,5.65s5.77,3.91,9.38,6.2c3.35,2.21,6.37,4.37,9.04,6.54s4.75,4.54,6.32,7.13,2.29,5.77,2.29,9.55c0,4.46-1.1,8.15-3.27,11.08s-5.14,5.14-8.83,6.58c-3.69,1.44-7.73,2.16-12.1,2.16-4.03,0-7.26-.42-9.59-1.23-2.38-.81-4.41-1.7-6.11-2.59-1.49-.98-2.67-1.44-3.48-1.44-.68,0-1.19.38-1.49,1.15s-.55,1.87-.76,3.4h-2.38c.13-1.57.21-3.44.25-5.56,0-2.12.08-4.88.08-8.28s.04-7.68.04-12.9h2.38c.25,4.37,1.06,8.49,2.29,12.27s3.23,6.88,5.86,9.17c2.63,2.33,6.15,3.48,10.53,3.48,2.38,0,4.58-.42,6.54-1.27s3.52-2.21,4.67-3.99c1.15-1.83,1.74-4.12,1.74-6.92s-.64-5.26-1.95-7.39-3.1-4.12-5.43-5.94c-2.33-1.87-5.05-3.74-8.19-5.65-3.23-2.04-6.24-4.16-9.04-6.28s-5.05-4.54-6.71-7.26c-1.7-2.72-2.5-5.99-2.5-9.81,0-4.24,1.02-7.73,3.1-10.44,2.04-2.72,4.75-4.71,8.06-5.99,3.31-1.32,6.88-1.95,10.61-1.95l-.08.13h-.01Z"/>
      <path class="cls-2" d="M492.64,47.81c6.96,0,13.12,1.49,18.38,4.41,5.26,2.93,9.34,7.17,12.27,12.69s4.37,12.18,4.37,20.08-1.49,14.35-4.46,20.12c-2.97,5.73-7.13,10.23-12.44,13.46-5.31,3.23-11.38,4.84-18.21,4.84s-13.12-1.49-18.38-4.41c-5.26-2.93-9.34-7.17-12.27-12.73s-4.37-12.22-4.37-19.99,1.49-14.39,4.5-20.12,7.13-10.23,12.44-13.46c5.26-3.23,11.33-4.84,18.17-4.84v-.04h0ZM492.21,49.63c-4.03,0-7.56,1.53-10.53,4.63s-5.31,7.3-6.92,12.73c-1.66,5.39-2.46,11.67-2.46,18.8s.93,13.58,2.76,18.93c1.87,5.39,4.33,9.51,7.43,12.44,3.1,2.89,6.58,4.37,10.4,4.37,4.03,0,7.56-1.53,10.53-4.63s5.31-7.34,6.92-12.78c1.66-5.43,2.46-11.67,2.46-18.72s-.93-13.67-2.76-18.97c-1.83-5.35-4.33-9.47-7.43-12.35-3.1-2.93-6.58-4.37-10.4-4.37v-.08h0Z"/>
      <path class="cls-2" d="M618.07,49.25v2.04c-2.21.21-3.86.72-5.01,1.49-1.15.81-1.95,2.04-2.29,3.69-.38,1.7-.55,4.07-.55,7.13v58.62c-.59-.08-1.27-.08-2-.08s-1.49,0-2.29.08l-44.02-59.85v44.36c0,3.27.21,5.86.64,7.64.42,1.83,1.32,3.1,2.72,3.91s3.52,1.32,6.41,1.61v2.04c-1.32-.13-2.97-.21-5.05-.25-2.04,0-3.99-.04-5.86-.04-1.66,0-3.31,0-4.97.04-1.7,0-3.06.13-4.16.25v-2.04c2.25-.25,3.95-.81,5.09-1.53,1.15-.76,1.87-2,2.25-3.69s.55-4.07.55-7.09v-47.41c0-2.55-.17-4.41-.55-5.6s-1.15-2.04-2.25-2.46c-1.15-.42-2.84-.72-5.09-.76v-2.04c1.1.08,2.46.13,4.16.21,1.66.08,3.35.08,4.97.08s3.1,0,4.63-.08c1.49-.08,2.84-.13,3.99-.21l38.5,51.23v-36.04c0-3.35-.21-5.9-.64-7.68s-1.32-3.1-2.67-3.91-3.52-1.32-6.45-1.53v-2.04c1.32.08,3.01.13,5.09.21s4.03.08,5.82.08,3.4,0,5.09-.08c1.66-.08,3.01-.13,4.07-.21l-.13-.08h0Z"/>
      <path class="cls-2" d="M717.1,47.81c4.58,0,8.32.68,11.21,2s5.52,2.89,7.9,4.67c.81.68,1.49,1.02,2.04,1.02,1.32,0,2.16-2.08,2.55-6.28h2.38c-.13,2.59-.25,5.77-.3,9.55-.08,3.78-.08,8.74-.08,14.9h-2.38c-.47-3.69-1.15-7-2.04-9.98-.89-2.93-2.5-5.43-4.84-7.51-1.78-1.91-4.03-3.4-6.71-4.46s-5.43-1.61-8.15-1.61c-3.61,0-6.79.93-9.51,2.84s-4.97,4.46-6.79,7.68c-1.83,3.27-3.18,7-4.07,11.29s-1.32,8.83-1.32,13.71c0,12.31,1.78,21.35,5.39,27.04,3.61,5.73,8.87,8.57,15.88,8.57,1.91,0,3.57-.25,4.97-.76s2.55-1.06,3.44-1.61c1.1-.76,1.83-1.53,2.16-2.38.34-.81.51-1.83.51-3.06v-10.06c0-3.01-.25-5.26-.81-6.71-.55-1.49-1.57-2.46-3.01-3.01-1.49-.55-3.65-.85-6.54-.93v-2.04c1.36.08,3.01.13,4.88.17,1.87,0,3.86.08,5.94.08s3.99.04,5.69.04c2.67,0,5.09,0,7.3-.08s3.99-.13,5.43-.21v2.04c-1.36.08-2.42.3-3.14.72s-1.19,1.23-1.4,2.46-.3,3.1-.3,5.65v20.33h-2.04c-.08-1.15-.34-2.42-.81-3.78s-1.19-2.04-2.16-2.04c-.47,0-1.02.13-1.66.34-.64.25-1.7.76-3.18,1.61-2.38,1.57-4.97,2.84-7.64,3.86s-5.65,1.49-8.87,1.49c-7.68,0-14.13-1.44-19.44-4.37-5.31-2.89-9.34-7.13-12.05-12.61s-4.12-12.1-4.12-19.78,1.53-14.73,4.63-20.54c3.1-5.82,7.3-10.31,12.69-13.5s11.5-4.75,18.42-4.75h-.05Z"/>
      <path class="cls-2" d="M834.55,49.25v2.04c-2.21.21-3.86.72-4.97,1.49-1.15.81-1.91,2.04-2.29,3.69-.42,1.7-.64,4.07-.64,7.13v28.44c0,4.58-.3,8.7-.89,12.31s-1.7,6.79-3.35,9.42c-1.7,2.89-4.24,5.18-7.64,6.92s-7.51,2.63-12.35,2.63c-3.27,0-6.54-.38-9.72-1.15s-5.99-2.16-8.36-4.2c-2.12-1.78-3.78-3.78-4.97-6.07s-2-4.97-2.42-8.15-.59-7-.59-11.46v-32.22c0-2.55-.17-4.41-.55-5.6-.38-1.19-1.15-2.04-2.25-2.46-1.15-.42-2.84-.72-5.09-.76v-2.04c1.7.08,3.91.13,6.58.21,2.67.08,5.56.08,8.62.08,2.8,0,5.56,0,8.32-.08,2.72-.08,5.01-.13,6.79-.21v2.04c-2.33.08-4.07.34-5.31.76-1.19.47-2,1.27-2.42,2.46s-.64,3.06-.64,5.6v37.14c0,3.44.21,6.54.68,9.3.42,2.76,1.19,5.14,2.25,7.13s2.55,3.48,4.5,4.5,4.41,1.53,7.43,1.53c5.01,0,8.87-1.15,11.59-3.4,2.72-2.25,4.67-5.39,5.73-9.42s1.66-8.62,1.66-13.75v-28.74c0-3.35-.25-5.9-.72-7.68s-1.4-3.1-2.84-3.91-3.48-1.32-6.2-1.53v-2.04c1.32.08,3.01.13,5.09.21s4.03.08,5.82.08,3.4,0,5.09-.08c1.66-.08,3.01-.13,4.07-.21v.04h-.01Z"/>
      <path class="cls-2" d="M882.65,49.25v2.04c-2.21.08-3.86.34-4.97.76-1.15.47-1.91,1.27-2.29,2.46s-.59,3.06-.59,5.6v50.89c0,2.46.17,4.33.55,5.56s1.15,2.04,2.29,2.46c1.15.42,2.84.68,5.01.81v2.04c-1.7-.13-3.91-.21-6.58-.25-2.67,0-5.39-.04-8.11-.04-3.1,0-5.99,0-8.66.04-2.72,0-4.88.13-6.54.25v-2.04c2.25-.13,3.95-.42,5.09-.81,1.15-.42,1.87-1.23,2.25-2.46s.55-3.06.55-5.56v-50.89c0-2.55-.17-4.41-.55-5.6-.38-1.19-1.15-2.04-2.25-2.46-1.15-.42-2.84-.72-5.09-.76v-2.04c1.66.08,3.82.13,6.54.21s5.6.08,8.66.08c2.72,0,5.43,0,8.11-.08s4.84-.13,6.58-.21Z"/>
      <path class="cls-2" d="M933.01,49.25c13.12,0,22.88,3.06,29.2,9.21,6.32,6.11,9.51,14.9,9.51,26.32,0,7.47-1.57,13.97-4.67,19.57-3.1,5.56-7.6,9.89-13.5,12.99s-13.03,4.63-21.44,4.63c-1.02,0-2.42,0-4.16-.08s-3.57-.13-5.43-.17c-1.87,0-3.61-.04-5.18-.04-2.8,0-5.56,0-8.19.04-2.67,0-4.84.13-6.58.25v-2.04c2.25-.13,3.95-.42,5.09-.81,1.15-.42,1.87-1.23,2.25-2.46s.55-3.06.55-5.56v-50.89c0-2.55-.17-4.41-.55-5.6-.38-1.19-1.15-2.04-2.25-2.46-1.15-.42-2.84-.72-5.09-.76v-2.04c1.7.08,3.91.17,6.58.25s5.35.13,8.02.04c2.46-.08,5.22-.13,8.32-.21,3.1-.08,5.6-.08,7.6-.08l-.08-.08v-.02ZM932.12,51.07c-3.14,0-5.22.59-6.15,1.74-.98,1.15-1.44,3.52-1.44,7.09v51.32c0,3.57.51,5.9,1.49,7.09.98,1.15,3.06,1.74,6.2,1.74,6.37,0,11.33-1.36,14.94-4.07s6.11-6.66,7.6-11.84,2.21-11.55,2.21-18.97-.81-14.01-2.42-19.06-4.24-8.79-7.85-11.29-8.49-3.74-14.56-3.74h-.02Z"/>
      <path class="cls-2" d="M1020.26,48.91l24.96,64.35c1.02,2.46,2.12,4.16,3.35,5.09s2.29,1.4,3.35,1.49v2.04c-1.78-.13-3.91-.21-6.41-.25-2.5,0-5.05-.04-7.64-.04-3.01,0-5.82,0-8.4.04-2.59,0-4.71.13-6.37.25v-2.04c3.48-.13,5.73-.72,6.66-1.78.98-1.06.76-3.35-.59-6.83l-18.08-48.77,1.87-2.25-16.43,42.62c-1.32,3.44-2.08,6.24-2.38,8.4-.25,2.21-.08,3.91.51,5.14.64,1.23,1.66,2.12,3.1,2.63s3.23.81,5.35.89v2.04c-2.21-.13-4.33-.21-6.37-.25-2.04,0-4.12-.04-6.15-.04-1.49,0-2.93,0-4.24.04-1.32,0-2.5.13-3.52.25v-2.04c1.49-.34,3.01-1.23,4.46-2.67s2.89-3.95,4.24-7.51l23.52-60.78c.81.08,1.7.08,2.67.08s1.87,0,2.67-.08h-.13v-.02ZM1029.22,92.33v2.04h-30.6l1.02-2.04h29.59-.01Z"/>
      <path class="cls-2" d="M99.57,123.41V53.2l-32.27,25.41v44.78h-4.68v-44.86l-31.9-25.94v70.79h-4.69V53.2l-10.44,8.5-2.95-3.63L64.98,15.5l52.17,42.57-2.97,3.63-9.95-8.12v69.83h-4.68.02ZM65.01,74.45l32.98-25.98-33.01-26.93-32.53,26.44,32.57,26.47h0Z"/>
    </g>
    <rect class="cls-1" width="1068.99" height="147.77"/>
  </g>
</svg>