<?xml version="1.0" encoding="UTF-8"?>
<svg id="Livello_2" xmlns="http://www.w3.org/2000/svg" version="1.1" viewBox="0 0 1144.8 296.1">
  <!-- Generator: Adobe Illustrator 29.8.2, SVG Export Plug-In . SVG Version: 2.1.1 Build 3)  -->
  <defs>
    <style>
      .st0 {
        fill: none;
      }

      .st1 {
        fill: #231f20;
      }
    </style>
  </defs>
  <g>
    <path class="st1" d="M273.7,113.1v2c-2.2,0-3.9.3-5,.8-1.1.5-2,1.3-2.3,2.5-.4,1.2-.5,3.1-.5,5.6v50.9c0,2.5.2,4.3.6,5.6s1.2,2,2.3,2.5,2.8.7,5,.8v2c-1.8-.1-4-.2-6.8-.2-2.8,0-5.5,0-8.3,0s-6,0-8.7,0c-2.7,0-4.9.1-6.5.2v-2c2.3-.1,4.1-.4,5.3-.8,1.2-.4,2-1.2,2.4-2.5.4-1.2.6-3.1.6-5.6v-55.8h.7c0,0-25.5,67-25.5,67h-1.7l-27.1-66.4v50.9c0,3.3.2,5.9.6,7.6.4,1.8,1.3,3.1,2.7,3.9s3.5,1.3,6.4,1.6v2c-1.3-.1-3-.2-5.1-.2-2,0-4,0-5.9,0s-3.3,0-5,0c-1.7,0-3.1.1-4.2.2v-2c2.2-.2,3.9-.8,5.1-1.5,1.1-.8,1.9-2,2.2-3.7s.6-4.1.6-7.1v-47.4c0-2.6-.2-4.4-.6-5.6s-1.1-2-2.2-2.5c-1.1-.4-2.8-.7-5.1-.8v-2c1.1,0,2.5.1,4.2.2s3.4,0,5,0c2.6,0,5,0,7.4,0s4.5-.1,6.4-.2l22.1,55.1-2.2,1.8,21.4-56.7h6.5c2.8,0,5.6,0,8.3,0,2.7,0,5-.1,6.8-.2h0Z"/>
    <path class="st1" d="M324.2,112.8l25,64.3c1,2.5,2.1,4.2,3.4,5.1,1.2.9,2.3,1.4,3.4,1.5v2c-1.8-.1-3.9-.2-6.4-.2-2.5,0-5,0-7.6,0s-5.8,0-8.4,0c-2.6,0-4.7.1-6.4.2v-2c3.5-.1,5.7-.7,6.7-1.8,1-1.1.8-3.4-.6-6.8l-18.1-48.8,1.9-2.2-16.4,42.6c-1.3,3.4-2.1,6.2-2.4,8.4s0,3.9.5,5.1,1.7,2.1,3.1,2.6,3.2.8,5.4.9v2c-2.2-.1-4.3-.2-6.4-.2-2,0-4.1,0-6.1,0s-2.9,0-4.2,0c-1.3,0-2.5.1-3.5.2v-2c1.5-.3,3-1.2,4.5-2.7s2.9-3.9,4.2-7.5l23.5-60.8c.8,0,1.7,0,2.7,0s1.9,0,2.7,0h0ZM333.1,156.2v2h-30.6l1-2h29.6,0Z"/>
    <path class="st1" d="M404.1,113.1v2c-2.2,0-3.9.3-5,.8-1.1.5-1.9,1.3-2.3,2.5s-.6,3.1-.6,5.6v50.9c0,2.5.2,4.3.5,5.6s1.1,2,2.3,2.5,2.8.7,5,.8v2c-1.7-.1-3.9-.2-6.6-.2-2.7,0-5.4,0-8.1,0s-6,0-8.7,0c-2.7,0-4.9.1-6.5.2v-2c2.2-.1,4-.4,5.1-.8,1.1-.4,1.9-1.2,2.2-2.5s.5-3.1.5-5.6v-50.9c0-2.6-.2-4.4-.5-5.6s-1.1-2-2.2-2.5c-1.1-.4-2.8-.7-5.1-.8v-2c1.7,0,3.8.1,6.5.2s5.6,0,8.7,0,5.4,0,8.1,0,4.8-.1,6.6-.2h0Z"/>
    <path class="st1" d="M451.5,111.9c3.8,0,6.8.4,8.8,1.2,2,.8,3.8,1.7,5.4,2.7.8.5,1.5.8,2,1.1.5.2,1,.3,1.5.3.7,0,1.2-.4,1.5-1.2s.5-1.9.8-3.4h2.4c0,1.3-.2,2.8-.2,4.5s-.2,4-.2,6.8c0,2.8,0,6.6,0,11.2h-2.4c-.2-3.5-1-6.8-2.3-10.1s-3.2-5.9-5.6-7.9c-2.4-2.1-5.5-3.1-9.3-3.1s-6.1,1-8.4,3c-2.2,2-3.4,4.7-3.4,8s.7,5.3,2.2,7.2c1.4,1.9,3.5,3.8,6.1,5.6s5.8,3.9,9.4,6.2c3.4,2.2,6.4,4.4,9,6.5s4.8,4.5,6.3,7.1,2.3,5.8,2.3,9.6-1.1,8.1-3.3,11.1-5.1,5.1-8.8,6.6c-3.7,1.4-7.7,2.2-12.1,2.2s-7.3-.4-9.6-1.2c-2.4-.8-4.4-1.7-6.1-2.6-1.5-1-2.7-1.4-3.5-1.4s-1.2.4-1.5,1.1-.5,1.9-.8,3.4h-2.4c.1-1.6.2-3.4.2-5.6,0-2.1,0-4.9,0-8.3s0-7.7,0-12.9h2.4c.2,4.4,1.1,8.5,2.3,12.3s3.2,6.9,5.9,9.2c2.6,2.3,6.1,3.5,10.5,3.5s4.6-.4,6.5-1.3,3.5-2.2,4.7-4c1.1-1.8,1.7-4.1,1.7-6.9s-.6-5.3-2-7.4-3.1-4.1-5.4-5.9c-2.3-1.9-5-3.7-8.2-5.6-3.2-2-6.2-4.2-9-6.3s-5-4.5-6.7-7.3c-1.7-2.7-2.5-6-2.5-9.8s1-7.7,3.1-10.4c2-2.7,4.8-4.7,8.1-6,3.3-1.3,6.9-1.9,10.6-1.9h0c0,.1,0,.1,0,.1Z"/>
    <path class="st1" d="M536.9,111.7c7,0,13.1,1.5,18.4,4.4,5.3,2.9,9.3,7.2,12.3,12.7s4.4,12.2,4.4,20.1-1.5,14.4-4.5,20.1c-3,5.7-7.1,10.2-12.4,13.5-5.3,3.2-11.4,4.8-18.2,4.8s-13.1-1.5-18.4-4.4c-5.3-2.9-9.3-7.2-12.3-12.7s-4.4-12.2-4.4-20,1.5-14.4,4.5-20.1,7.1-10.2,12.4-13.5c5.3-3.2,11.3-4.8,18.2-4.8h0s0,0,0,0ZM536.5,113.5c-4,0-7.6,1.5-10.5,4.6s-5.3,7.3-6.9,12.7c-1.7,5.4-2.5,11.7-2.5,18.8s.9,13.6,2.8,18.9c1.9,5.4,4.3,9.5,7.4,12.4,3.1,2.9,6.6,4.4,10.4,4.4s7.6-1.5,10.5-4.6,5.3-7.3,6.9-12.8c1.7-5.4,2.5-11.7,2.5-18.7s-.9-13.7-2.8-19c-1.8-5.3-4.3-9.5-7.4-12.3-3.1-2.9-6.6-4.4-10.4-4.4h0q0,0,0,0Z"/>
    <path class="st1" d="M662.4,113.1v2c-2.2.2-3.9.7-5,1.5-1.2.8-2,2-2.3,3.7-.4,1.7-.5,4.1-.5,7.1v58.6c-.6,0-1.3,0-2,0s-1.5,0-2.3,0l-44-59.8v44.4c0,3.3.2,5.9.6,7.6.4,1.8,1.3,3.1,2.7,3.9s3.5,1.3,6.4,1.6v2c-1.3-.1-3-.2-5-.2-2,0-4,0-5.9,0s-3.3,0-5,0c-1.7,0-3.1.1-4.2.2v-2c2.2-.2,4-.8,5.1-1.5,1.2-.8,1.9-2,2.2-3.7s.5-4.1.5-7.1v-47.4c0-2.6-.2-4.4-.5-5.6s-1.2-2-2.2-2.5c-1.2-.4-2.8-.7-5.1-.8v-2c1.1,0,2.5.1,4.2.2,1.7,0,3.3,0,5,0s3.1,0,4.6,0c1.5,0,2.8-.1,4-.2l38.5,51.2v-36c0-3.3-.2-5.9-.6-7.7s-1.3-3.1-2.7-3.9-3.5-1.3-6.5-1.5v-2c1.3,0,3,.1,5.1.2s4,0,5.8,0,3.4,0,5.1,0c1.7,0,3-.1,4.1-.2h-.1c0,0,0,0,0,0Z"/>
    <path class="st1" d="M761.4,111.7c4.6,0,8.3.7,11.2,2s5.5,2.9,7.9,4.7c.8.7,1.5,1,2,1,1.3,0,2.2-2.1,2.5-6.3h2.4c-.1,2.6-.2,5.8-.3,9.6,0,3.8,0,8.7,0,14.9h-2.4c-.5-3.7-1.2-7-2-10-.9-2.9-2.5-5.4-4.8-7.5-1.8-1.9-4-3.4-6.7-4.5s-5.4-1.6-8.2-1.6-6.8.9-9.5,2.8-5,4.5-6.8,7.7c-1.8,3.3-3.2,7-4.1,11.3s-1.3,8.8-1.3,13.7c0,12.3,1.8,21.4,5.4,27,3.6,5.7,8.9,8.6,15.9,8.6s3.6-.2,5-.8,2.5-1.1,3.4-1.6c1.1-.8,1.8-1.5,2.2-2.4.3-.8.5-1.8.5-3.1v-10.1c0-3-.2-5.3-.8-6.7-.5-1.5-1.6-2.5-3-3-1.5-.6-3.7-.9-6.5-.9v-2c1.4,0,3,.1,4.9.2,1.9,0,3.9,0,5.9,0s4,0,5.7,0c2.7,0,5.1,0,7.3,0s4-.1,5.4-.2v2c-1.4,0-2.4.3-3.1.7s-1.2,1.2-1.4,2.5-.3,3.1-.3,5.6v20.3h-2c0-1.1-.3-2.4-.8-3.8s-1.2-2-2.2-2-1,.1-1.7.3c-.6.2-1.7.8-3.2,1.6-2.4,1.6-5,2.8-7.6,3.9s-5.7,1.5-8.9,1.5c-7.7,0-14.1-1.4-19.4-4.4-5.3-2.9-9.3-7.1-12-12.6s-4.1-12.1-4.1-19.8,1.5-14.7,4.6-20.5c3.1-5.8,7.3-10.3,12.7-13.5s11.5-4.8,18.4-4.8h0Z"/>
    <path class="st1" d="M878.9,113.1v2c-2.2.2-3.9.7-5,1.5-1.2.8-1.9,2-2.3,3.7-.4,1.7-.6,4.1-.6,7.1v28.4c0,4.6-.3,8.7-.9,12.3s-1.7,6.8-3.3,9.4c-1.7,2.9-4.2,5.2-7.6,6.9s-7.5,2.6-12.3,2.6-6.5-.4-9.7-1.1-6-2.2-8.4-4.2c-2.1-1.8-3.8-3.8-5-6.1s-2-5-2.4-8.1-.6-7-.6-11.5v-32.2c0-2.6-.2-4.4-.5-5.6-.4-1.2-1.2-2-2.2-2.5-1.2-.4-2.8-.7-5.1-.8v-2c1.7,0,3.9.1,6.6.2,2.7,0,5.6,0,8.6,0s5.6,0,8.3,0c2.7,0,5-.1,6.8-.2v2c-2.3,0-4.1.3-5.3.8-1.2.5-2,1.3-2.4,2.5s-.6,3.1-.6,5.6v37.1c0,3.4.2,6.5.7,9.3.4,2.8,1.2,5.1,2.2,7.1s2.5,3.5,4.5,4.5,4.4,1.5,7.4,1.5c5,0,8.9-1.1,11.6-3.4,2.7-2.2,4.7-5.4,5.7-9.4s1.7-8.6,1.7-13.8v-28.7c0-3.3-.2-5.9-.7-7.7s-1.4-3.1-2.8-3.9-3.5-1.3-6.2-1.5v-2c1.3,0,3,.1,5.1.2s4,0,5.8,0,3.4,0,5.1,0c1.7,0,3-.1,4.1-.2h0s0,0,0,0Z"/>
    <path class="st1" d="M927,113.1v2c-2.2,0-3.9.3-5,.8-1.2.5-1.9,1.3-2.3,2.5s-.6,3.1-.6,5.6v50.9c0,2.5.2,4.3.5,5.6s1.2,2,2.3,2.5c1.2.4,2.8.7,5,.8v2c-1.7-.1-3.9-.2-6.6-.2-2.7,0-5.4,0-8.1,0s-6,0-8.7,0c-2.7,0-4.9.1-6.5.2v-2c2.2-.1,4-.4,5.1-.8,1.2-.4,1.9-1.2,2.2-2.5s.5-3.1.5-5.6v-50.9c0-2.6-.2-4.4-.5-5.6-.4-1.2-1.2-2-2.2-2.5-1.2-.4-2.8-.7-5.1-.8v-2c1.7,0,3.8.1,6.5.2s5.6,0,8.7,0,5.4,0,8.1,0,4.8-.1,6.6-.2Z"/>
    <path class="st1" d="M977.3,113.1c13.1,0,22.9,3.1,29.2,9.2,6.3,6.1,9.5,14.9,9.5,26.3s-1.6,14-4.7,19.6c-3.1,5.6-7.6,9.9-13.5,13s-13,4.6-21.4,4.6-2.4,0-4.2,0-3.6-.1-5.4-.2c-1.9,0-3.6,0-5.2,0-2.8,0-5.6,0-8.2,0-2.7,0-4.8.1-6.6.2v-2c2.2-.1,4-.4,5.1-.8,1.2-.4,1.9-1.2,2.2-2.5s.5-3.1.5-5.6v-50.9c0-2.6-.2-4.4-.5-5.6-.4-1.2-1.2-2-2.2-2.5-1.2-.4-2.8-.7-5.1-.8v-2c1.7,0,3.9.2,6.6.2s5.3.1,8,0c2.5,0,5.2-.1,8.3-.2,3.1,0,5.6,0,7.6,0h0c0,0,0-.1,0-.1ZM976.4,115c-3.1,0-5.2.6-6.2,1.7-1,1.2-1.4,3.5-1.4,7.1v51.3c0,3.6.5,5.9,1.5,7.1,1,1.1,3.1,1.7,6.2,1.7,6.4,0,11.3-1.4,14.9-4.1s6.1-6.7,7.6-11.8,2.2-11.6,2.2-19-.8-14-2.4-19.1-4.2-8.8-7.8-11.3-8.5-3.7-14.6-3.7h0Z"/>
    <path class="st1" d="M1064.6,112.8l25,64.3c1,2.5,2.1,4.2,3.3,5.1s2.3,1.4,3.3,1.5v2c-1.8-.1-3.9-.2-6.4-.2-2.5,0-5.1,0-7.6,0s-5.8,0-8.4,0c-2.6,0-4.7.1-6.4.2v-2c3.5-.1,5.7-.7,6.7-1.8,1-1.1.8-3.4-.6-6.8l-18.1-48.8,1.9-2.2-16.4,42.6c-1.3,3.4-2.1,6.2-2.4,8.4-.2,2.2,0,3.9.5,5.1.6,1.2,1.7,2.1,3.1,2.6s3.2.8,5.3.9v2c-2.2-.1-4.3-.2-6.4-.2-2,0-4.1,0-6.2,0s-2.9,0-4.2,0c-1.3,0-2.5.1-3.5.2v-2c1.5-.3,3-1.2,4.5-2.7s2.9-3.9,4.2-7.5l23.5-60.8c.8,0,1.7,0,2.7,0s1.9,0,2.7,0h-.1,0ZM1073.5,156.2v2h-30.6l1-2h29.6,0Z"/>
    <path class="st1" d="M143.9,187.3v-70.2l-32.3,25.4v44.8h-4.7v-44.9l-31.9-25.9v70.8h-4.7v-70.2l-10.4,8.5-3-3.6,52.3-42.6,52.2,42.6-3,3.6-10-8.1v69.8h-4.7,0ZM109.3,138.3l33-26-33-26.9-32.5,26.4,32.6,26.5h0Z"/>
  </g>
  <rect class="st0" x="44.3" y="63.9" width="1069" height="147.8"/>
</svg>